# xmcd CD database file
#
# Track frame offsets:
#	150
#	30517
#	44772
#	60892
#	76167
#	86097
#	101350
#	123670
#	142992
#	157167
#	184390
#	201270
#	214337
#	228197
#	242407
#	260652
#	275320
#	287747
#
# Disc length: 4032 seconds
#
# Revision: 0
# Processed by: cddbd v1.5.1PL0 Copyright (c) Steve Scherf et al.
# Submitted via: CDex 1.51
#
DISCID=020fbe12
DTITLE=Wes Montgomery - Hit Album
DYEAR=1900
DGENRE=Jazz
TTITLE0=Bumpin'
TTITLE1=Tear it Down
TTITLE2=A Quiet Thing
TTITLE3=Con Alma
TTITLE4=Then Shadow fo Your Smile
TTITLE5=Mi Cosa
TTITLE6=Here's That Rainy Day
TTITLE7=Musty
TTITLE8=California Dreaming
TTITLE9=Sun Down
TTITLE10=Oh You Crazy Moon
TTITLE11=More, More, Amor
TTITLE12=Without You
TTITLE13=Winds of Barcelona
TTITLE14=Summy
TTITLE15=South of The Border
TTITLE16=Georgia on my Mind
TTITLE17=I say a little Prayer for You
EXTD=
EXTT0=
EXTT1=
EXTT2=
EXTT3=
EXTT4=
EXTT5=
EXTT6=
EXTT7=
EXTT8=
EXTT9=
EXTT10=
EXTT11=
EXTT12=
EXTT13=
EXTT14=
EXTT15=
EXTT16=
EXTT17=
PLAYORDER=
